<?xml version="1.0" encoding="UTF-8"?>
<svg id="Layer_1" data-name="Layer 1" xmlns="http://www.w3.org/2000/svg" viewBox="0 0 89.66 30">
  <defs>
    <style>
      .cls-1 {
        fill: #fff;
      }

      .cls-1, .cls-2 {
        stroke-width: 0px;
      }

      .cls-2 {
        fill: #0e065a;
      }
    </style>
  </defs>
  <g>
    <path class="cls-1" d="M33.45,11.12c-.27-.36-.59-.67-.94-.94-.55-.41-1.18-.7-1.88-.84-.3-.06-.62-.09-.94-.09s-.64.03-.94.1c-.69.14-1.33.43-1.88.84-.36.27-.67.59-.94.94-.41.55-.7,1.18-.84,1.88-.06.3-.09.62-.09.94v1.88c0,.32.03.64.09.94.14.69.44,1.33.84,1.88.27.36.59.67.94.94.55.41,1.18.7,1.88.84.3.06.62.09.94.09s.64-.03.94-.1c.69-.14,1.33-.43,1.88-.84.36-.27.67-.59.94-.94.41-.55.7-1.18.84-1.88.06-.3.09-.62.09-.94v-1.88c0-.32-.03-.64-.09-.94-.14-.69-.44-1.33-.84-1.88ZM32.51,15.82c0,1.56-1.26,2.82-2.82,2.82s-2.82-1.26-2.82-2.82v-1.88c0-1.56,1.26-2.82,2.82-2.82s2.82,1.26,2.82,2.82v1.88Z"/>
    <path class="cls-1" d="M43.78,5.48v4.7c-.55-.41-1.18-.7-1.88-.84-.3-.06-.62-.09-.94-.09s-.64.03-.94.1c-.69.14-1.33.44-1.88.84-.36.27-.67.59-.94.94-.41.55-.7,1.18-.84,1.88-.06.3-.09.62-.09.94v1.88c0,.32.03.64.09.94.14.69.43,1.33.84,1.88.27.36.59.67.94.94.55.41,1.18.7,1.88.84.3.06.62.09.94.09s.64-.03.94-.1c.69-.14,1.33-.44,1.88-.84v.94h1.88V5.48h-1.88ZM43.78,15.83c0,1.55-1.27,2.8-2.82,2.8s-2.82-1.26-2.82-2.82v-1.88c0-1.56,1.26-2.82,2.82-2.82s2.81,1.25,2.82,2.8v1.91Z"/>
    <path class="cls-1" d="M56,11.12c-.27-.36-.59-.67-.94-.94-.55-.41-1.18-.7-1.88-.84-.3-.06-.62-.09-.94-.09s-.64.03-.94.1c-.69.14-1.33.43-1.88.84-.36.27-.67.59-.94.94-.41.55-.7,1.18-.84,1.88-.06.3-.09.62-.09.94v1.88c0,.32.03.64.09.94.14.69.43,1.33.84,1.88.27.36.59.67.94.94.55.41,1.18.7,1.88.84.3.06.62.09.94.09s.64-.03.94-.1c.69-.14,1.33-.43,1.88-.84.36-.27.67-.59.94-.94.41-.55.7-1.18.84-1.88.06-.3.09-.62.09-.94v-1.88c0-.32-.03-.64-.09-.94-.14-.69-.43-1.33-.84-1.88ZM55.06,15.82c0,1.56-1.26,2.82-2.82,2.82s-2.82-1.26-2.82-2.82v-1.88c0-1.56,1.26-2.82,2.82-2.82s2.82,1.26,2.82,2.82v1.88Z"/>
    <rect class="cls-1" x="81.37" y="24.27" width=".18" height="0"/>
    <path class="cls-1" d="M87.01,18.64v.55c0,1.04-.24,2.08-.78,2.97-.05.09-.11.17-.16.24,0,0,0,0,0,0-.27.36-.59.67-.94.94-.55.41-1.18.7-1.88.84-.28.06-.57.09-.86.09-.03,0-.05,0-.08,0s-.05,0-.08,0h-.86s-7.53,0-7.53,0v-1.88h7.53s1.01,0,1.01,0c1.52-.04,2.75-1.29,2.75-2.82v-3.76c-.79.59-1.76.94-2.82.94s-2.03-.35-2.82-.94c-.36-.27-.67-.59-.94-.94-.41-.55-.7-1.18-.84-1.88-.06-.3-.09-.62-.09-.94v-4.7h1.88v4.54c0,1.53,1.14,2.9,2.67,2.97,1.63.08,2.97-1.21,2.97-2.82v-4.7h1.88v11.28h0Z"/>
    <rect class="cls-1" x="70.08" y="22.4" width="1.88" height="1.88" transform="translate(4.3 57.06) rotate(-45)"/>
    <path class="cls-1" d="M77.61,18.64v1.88h-2.82c-.32,0-.64-.03-.94-.09-.69-.14-1.33-.44-1.88-.85-.36-.27-.67-.59-.94-.94-.41-.55-.7-1.18-.84-1.88-.06-.3-.09-.62-.09-.94V7.36h1.88v1.88h1.88s1.88,0,1.88,0v1.88h-1.88s-1.88,0-1.88,0v4.7c0,1.56,1.26,2.82,2.82,2.82h2.82Z"/>
    <path class="cls-1" d="M68.21,13.94v6.58h-1.88v-6.58c0-1.56-1.26-2.82-2.82-2.82s-2.82,1.26-2.82,2.82v6.58h-1.88v-6.58c0-.32.03-.64.09-.94.14-.69.43-1.33.84-1.88.27-.36.59-.67.94-.94.79-.59,1.76-.94,2.82-.94s2.03.35,2.82.94c.36.27.67.59.94.94.41.55.7,1.18.84,1.88.06.3.09.62.09.94Z"/>
  </g>
  <g>
    <g>
      <path class="cls-2" d="M4.35,5h16.84c.86,0,1.56.7,1.56,1.56v16.88c0,.86-.7,1.57-1.57,1.57H4.35c-.86,0-1.56-.7-1.56-1.56V6.56c0-.86.7-1.56,1.56-1.56Z"/>
      <path class="cls-1" d="M21.19,5.13c.79,0,1.44.64,1.44,1.44v16.88c0,.79-.64,1.44-1.44,1.44H4.35c-.79,0-1.44-.64-1.44-1.44V6.56c0-.79.64-1.44,1.44-1.44h16.84M21.19,4.87H4.35c-.94,0-1.69.76-1.69,1.69v16.88c0,.94.76,1.69,1.69,1.69h16.84c.94,0,1.69-.76,1.69-1.69V6.56c0-.94-.76-1.69-1.69-1.69h0Z"/>
    </g>
    <g>
      <rect class="cls-1" x="5.76" y="18.73" width="1.56" height="1.56" transform="translate(-11.88 10.34) rotate(-45)"/>
      <path class="cls-1" d="M19.77,13.28v7h-1.56v-7c0-1.29-1.04-2.33-2.33-2.33s-2.33,1.05-2.33,2.33v7h-1.56v-7c0-1.29-1.05-2.33-2.33-2.33s-2.33,1.05-2.33,2.33v3.89h-1.56v-3.89c0-.26.03-.53.08-.78.11-.58.36-1.1.7-1.56.22-.29.48-.55.78-.78.65-.49,1.46-.78,2.33-.78s1.68.29,2.33.78c.29.22.55.48.78.78.22-.29.48-.55.78-.78.65-.49,1.46-.78,2.33-.78s1.68.29,2.33.78c.3.22.56.48.78.78.34.45.58.98.7,1.56.05.25.08.51.08.78Z"/>
    </g>
  </g>
</svg>