<?xml version="1.0" encoding="UTF-8"?>
<svg id="Layer_1" data-name="Layer 1" xmlns="http://www.w3.org/2000/svg" viewBox="0 0 84.17 20.22">
  <defs>
    <style>
      .cls-1 {
        fill: #00d8d8;
      }

      .cls-1, .cls-2, .cls-3, .cls-4 {
        stroke-width: 0px;
      }

      .cls-2 {
        fill: #fff;
      }

      .cls-3 {
        fill: #3030ff;
      }

      .cls-4 {
        fill: #0e065a;
      }
    </style>
  </defs>
  <g>
    <path class="cls-3" d="M30.73,6.24c-.27-.36-.58-.67-.94-.94-.55-.41-1.18-.7-1.87-.84-.3-.06-.62-.09-.94-.09s-.64.03-.94.1c-.69.14-1.33.43-1.87.84-.35.27-.67.58-.94.94-.41.55-.7,1.18-.84,1.87-.06.3-.09.62-.09.94v1.88c0,.32.03.63.09.94.14.69.43,1.33.84,1.87.27.36.58.67.94.94.55.41,1.18.7,1.87.84.3.06.62.09.94.09s.64-.03.94-.1c.69-.14,1.33-.43,1.87-.84.35-.27.67-.58.94-.94.41-.55.7-1.18.84-1.87.06-.3.09-.62.09-.94v-1.88c0-.32-.03-.63-.09-.94-.14-.69-.43-1.33-.84-1.87ZM29.79,10.93c0,1.55-1.26,2.81-2.81,2.81s-2.81-1.26-2.81-2.81v-1.88c0-1.55,1.26-2.81,2.81-2.81s2.81,1.26,2.81,2.81v1.88Z"/>
    <path class="cls-3" d="M41.04.61v4.69c-.55-.41-1.18-.7-1.87-.84-.3-.06-.62-.09-.94-.09s-.64.03-.94.1c-.69.14-1.33.43-1.87.84-.35.27-.67.58-.94.94-.41.55-.7,1.18-.84,1.87-.06.3-.09.62-.09.94v1.88c0,.32.03.63.09.94.14.69.43,1.33.84,1.87.27.36.58.67.94.94.55.41,1.18.7,1.87.84.3.06.62.09.94.09s.64-.03.94-.1c.69-.14,1.33-.43,1.87-.84v.94h1.87V.61h-1.87ZM41.04,10.94c0,1.55-1.26,2.8-2.81,2.8s-2.81-1.26-2.81-2.81v-1.88c0-1.55,1.26-2.81,2.81-2.81s2.81,1.25,2.81,2.8v1.9Z"/>
    <path class="cls-3" d="M53.23,6.24c-.27-.36-.58-.67-.94-.94-.55-.41-1.18-.7-1.87-.84-.3-.06-.62-.09-.94-.09s-.64.03-.94.1c-.69.14-1.33.43-1.87.84-.35.27-.67.58-.94.94-.41.55-.7,1.18-.84,1.87-.06.3-.09.62-.09.94v1.88c0,.32.03.63.09.94.14.69.43,1.33.84,1.87.27.36.58.67.94.94.55.41,1.18.7,1.87.84.3.06.62.09.94.09s.64-.03.94-.1c.69-.14,1.33-.43,1.87-.84.35-.27.67-.58.94-.94.41-.55.7-1.18.84-1.87.06-.3.09-.62.09-.94v-1.88c0-.32-.03-.63-.09-.94-.14-.69-.43-1.33-.84-1.87ZM52.29,10.93c0,1.55-1.26,2.81-2.81,2.81s-2.81-1.26-2.81-2.81v-1.88c0-1.55,1.26-2.81,2.81-2.81s2.81,1.26,2.81,2.81v1.88Z"/>
    <rect class="cls-4" x="78.54" y="19.36" width=".17" height="0"/>
    <path class="cls-3" d="M84.17,13.74v.55c0,1.04-.24,2.08-.78,2.97-.05.09-.11.17-.16.24,0,0,0,0,0,0-.27.35-.58.67-.94.94-.55.41-1.18.7-1.87.84-.28.06-.57.09-.86.09-.03,0-.05,0-.08,0s-.05,0-.08,0h-.86s-7.51,0-7.51,0v-1.88h7.51s1.01,0,1.01,0c1.52-.04,2.74-1.28,2.74-2.81v-3.75c-.78.59-1.76.94-2.81.94s-2.03-.35-2.81-.94c-.35-.27-.67-.58-.94-.94-.41-.55-.7-1.18-.84-1.87-.06-.3-.09-.62-.09-.94V2.49h1.87v4.53c0,1.52,1.14,2.89,2.66,2.97,1.62.08,2.96-1.21,2.96-2.81V2.49h1.87v11.25h0Z"/>
    <rect class="cls-1" x="67.28" y="17.49" width="1.88" height="1.88" transform="translate(6.95 53.64) rotate(-45)"/>
    <path class="cls-3" d="M74.79,13.74v1.88h-2.81c-.32,0-.63-.03-.94-.09-.69-.14-1.33-.43-1.88-.85-.35-.27-.67-.58-.94-.94-.41-.55-.7-1.18-.84-1.87-.06-.3-.09-.62-.09-.94V2.49h1.87v1.88h1.87s1.88,0,1.88,0v1.87h-1.88s-1.87,0-1.87,0v4.69c0,1.55,1.26,2.81,2.81,2.81h2.81Z"/>
    <path class="cls-3" d="M65.41,9.05v6.56h-1.87v-6.56c0-1.55-1.26-2.81-2.81-2.81s-2.81,1.26-2.81,2.81v6.56h-1.87v-6.56c0-.32.03-.64.09-.94.14-.69.43-1.33.84-1.87.27-.35.58-.67.94-.94.78-.59,1.76-.94,2.81-.94s2.03.35,2.81.94c.35.27.67.58.94.94.41.55.7,1.18.84,1.87.06.3.09.62.09.94Z"/>
  </g>
  <g>
    <g>
      <rect class="cls-4" x=".13" y=".13" width="19.93" height="19.96" rx="1.56" ry="1.56"/>
      <path class="cls-2" d="M18.49.26c.79,0,1.43.64,1.43,1.43v16.84c0,.79-.64,1.43-1.43,1.43H1.69c-.79,0-1.43-.64-1.43-1.43V1.69C.26.9.9.26,1.69.26h16.8M18.49,0H1.69C.76,0,0,.76,0,1.69v16.84c0,.93.76,1.69,1.69,1.69h16.8c.93,0,1.69-.76,1.69-1.69V1.69c0-.93-.76-1.69-1.69-1.69h0Z"/>
    </g>
    <g>
      <rect class="cls-1" x="3.11" y="13.83" width="1.55" height="1.55" transform="translate(-9.19 7.02) rotate(-45)"/>
      <path class="cls-3" d="M17.08,8.4v6.99h-1.55v-6.99c0-1.29-1.04-2.33-2.33-2.33s-2.33,1.04-2.33,2.33v6.99h-1.55v-6.99c0-1.29-1.04-2.33-2.33-2.33s-2.33,1.04-2.33,2.33v3.88h-1.55v-3.88c0-.26.03-.52.08-.78.11-.57.36-1.1.7-1.55.22-.29.48-.55.78-.77.65-.49,1.45-.78,2.33-.78s1.68.29,2.33.78c.29.22.55.48.77.77.22-.29.48-.55.78-.77.65-.49,1.45-.78,2.33-.78s1.68.29,2.33.78c.3.22.56.48.78.77.34.45.58.98.7,1.55.05.25.08.51.08.78Z"/>
    </g>
  </g>
</svg>