<?xml version="1.0" encoding="UTF-8" standalone="no"?>
<!DOCTYPE svg PUBLIC "-//W3C//DTD SVG 1.1//EN" "http://www.w3.org/Graphics/SVG/1.1/DTD/svg11.dtd">
<svg width="100%" height="100%" viewBox="0 0 512 512" version="1.1" xmlns="http://www.w3.org/2000/svg" xmlns:xlink="http://www.w3.org/1999/xlink" xml:space="preserve" xmlns:serif="http://www.serif.com/" style="fill-rule:evenodd;clip-rule:evenodd;stroke-linejoin:round;stroke-miterlimit:2;">
    <g transform="matrix(3.983659,0,0,3.996619,254.006359,215.144834)">
        <g transform="matrix(1,0,0,1,-100,-100)">
            <g transform="matrix(2,0,0,2,0,0)">
                <path d="M79.36,91.55L20.64,91.55C17.38,91.55 14.73,88.91 14.73,85.64L14.73,26.81C14.73,23.55 17.37,20.9 20.64,20.9L79.35,20.9C82.61,20.9 85.26,23.54 85.26,26.81L85.26,85.64C85.26,88.9 82.62,91.55 79.36,91.55Z" style="fill:rgb(48,48,255);fill-rule:nonzero;"/>
                <g>
                    <g transform="matrix(0.7071,-0.7071,0.7071,0.7071,-42.5775,41.0813)">
                        <rect x="25.59" y="69.22" width="5.42" height="5.42" style="fill:rgb(243,243,243);"/>
                    </g>
                    <path d="M74.41,50.23L74.41,74.65L68.98,74.65L68.98,50.23C68.98,45.74 65.34,42.09 60.85,42.09C56.35,42.09 52.71,45.74 52.71,50.23L52.71,74.65L47.29,74.65L47.29,50.23C47.29,45.74 43.64,42.09 39.15,42.09C34.65,42.09 31.01,45.74 31.01,50.23L31.01,63.8L25.59,63.8L25.59,50.23C25.59,49.31 25.68,48.4 25.86,47.51C26.26,45.51 27.11,43.67 28.3,42.09C29.07,41.07 29.98,40.16 31.02,39.38C33.28,37.68 36.1,36.66 39.16,36.66C42.21,36.66 45.02,37.67 47.3,39.38C48.32,40.14 49.23,41.06 50.01,42.09C50.78,41.07 51.69,40.16 52.73,39.38C55,37.68 57.81,36.66 60.87,36.66C63.92,36.66 66.73,37.67 69,39.38C70.03,40.14 70.95,41.06 71.72,42.09C72.9,43.67 73.75,45.51 74.17,47.51C74.31,48.4 74.41,49.31 74.41,50.23Z" style="fill:rgb(243,243,243);fill-rule:nonzero;"/>
                </g>
            </g>
        </g>
    </g>
</svg>
