<?xml version="1.0" encoding="utf-8"?>
<!-- Generator: Adobe Illustrator 28.2.0, SVG Export Plug-In . SVG Version: 6.00 Build 0)  -->
<svg version="1.1" id="Layer_1" xmlns="http://www.w3.org/2000/svg" xmlns:xlink="http://www.w3.org/1999/xlink" x="0px" y="0px"
	 viewBox="0 0 100 100" style="enable-background:new 0 0 100 100;" xml:space="preserve">
<g>
	<path style="fill:#FFFFFF;" d="M27.183,70.026c-2.338,0-4.24-1.902-4.24-4.24v-45.73c0-2.338,1.902-4.24,4.24-4.24h45.635
		c2.338,0,4.24,1.902,4.24,4.24v45.73c0,2.338-1.902,4.24-4.24,4.24H27.183z"/>
	<path style="fill:#0E065A;" d="M72.817,16.165c2.145,0,3.891,1.745,3.891,3.891v45.73c0,2.145-1.745,3.891-3.891,3.891H27.183
		c-2.145,0-3.891-1.745-3.891-3.891v-45.73c0-2.145,1.745-3.891,3.891-3.891H72.817 M72.817,15.466H27.183
		c-2.535,0-4.59,2.055-4.59,4.59v45.73c0,2.535,2.055,4.59,4.59,4.59h45.634c2.535,0,4.59-2.055,4.59-4.59v-45.73
		C77.407,17.521,75.352,15.466,72.817,15.466L72.817,15.466z"/>
</g>
<g>
	
		<rect x="31.025" y="53.025" transform="matrix(0.7071 -0.7071 0.7071 0.7071 -29.2803 39.5775)" style="fill:#00D8D8;" width="4.216" height="4.216"/>
	<path style="fill:#3030FF;" d="M68.976,38.265v18.978h-4.222V38.265c0-3.49-2.828-6.326-6.318-6.326
		c-3.498,0-6.326,2.836-6.326,6.326v18.978h-4.215V38.265c0-3.49-2.836-6.326-6.326-6.326c-3.498,0-6.326,2.836-6.326,6.326v10.541
		h-4.215V38.265c0-0.717,0.07-1.426,0.21-2.111c0.312-1.558,0.974-2.984,1.893-4.215c0.6-0.795,1.309-1.504,2.111-2.103
		c1.76-1.324,3.95-2.111,6.326-2.111c2.368,0,4.558,0.787,6.326,2.111c0.795,0.592,1.504,1.309,2.104,2.103
		c0.6-0.795,1.309-1.504,2.111-2.103c1.761-1.324,3.95-2.111,6.326-2.111c2.368,0,4.557,0.787,6.318,2.111
		c0.802,0.592,1.519,1.309,2.111,2.103c0.919,1.231,1.582,2.657,1.901,4.215C68.898,36.839,68.976,37.548,68.976,38.265z"/>
</g>
</svg>
