<?xml version="1.0" encoding="UTF-8"?>
<svg xmlns="http://www.w3.org/2000/svg" viewBox="14.67 20.9 70.65 70.65">
  <path fill="#3030FF" d="M79.36,91.55H20.64c-3.26,0-5.91-2.64-5.91-5.91V26.81c0-3.26,2.64-5.91,5.91-5.91h58.71c3.26,0,5.91,2.64,5.91,5.91v58.83C85.26,88.9,82.62,91.55,79.36,91.55z"/>
  <rect x="25.59" y="69.22" transform="matrix(0.7071 -0.7071 0.7071 0.7071 -42.5775 41.0813)" fill="#F3F3F3" width="5.42" height="5.42"/>
  <path fill="#F3F3F3" d="M74.41,50.23v24.42h-5.43V50.23c0-4.49-3.64-8.14-8.13-8.14c-4.5,0-8.14,3.65-8.14,8.14v24.42h-5.42V50.23c0-4.49-3.65-8.14-8.14-8.14c-4.5,0-8.14,3.65-8.14,8.14V63.8h-5.42V50.23c0-0.92,0.09-1.83,0.27-2.72c0.4-2,1.25-3.84,2.44-5.42c0.77-1.02,1.68-1.93,2.72-2.71c2.26-1.7,5.08-2.72,8.14-2.72c3.05,0,5.86,1.01,8.14,2.72c1.02,0.76,1.93,1.68,2.71,2.71c0.77-1.02,1.68-1.93,2.72-2.71c2.27-1.7,5.08-2.72,8.14-2.72c3.05,0,5.86,1.01,8.13,2.72c1.03,0.76,1.95,1.68,2.72,2.71c1.18,1.58,2.03,3.42,2.45,5.42C74.31,48.4,74.41,49.31,74.41,50.23z"/>
</svg>
