<?xml version="1.0" encoding="UTF-8"?>
<svg id="Layer_1" data-name="Layer 1" xmlns="http://www.w3.org/2000/svg" viewBox="0 0 54.81 54.91">
  <defs>
    <style>
      .cls-1 {
        fill: #00d8d8;
      }

      .cls-1, .cls-2, .cls-3, .cls-4 {
        stroke-width: 0px;
      }

      .cls-2 {
        fill: #fff;
      }

      .cls-3 {
        fill: #3030ff;
      }

      .cls-4 {
        fill: #0e065a;
      }
    </style>
  </defs>
  <g>
    <rect class="cls-2" x=".35" y=".35" width="54.12" height="54.21" rx="4.24" ry="4.24"/>
    <path class="cls-4" d="M50.22.7c2.15,0,3.89,1.75,3.89,3.89v45.73c0,2.15-1.75,3.89-3.89,3.89H4.59c-2.15,0-3.89-1.75-3.89-3.89V4.59C.7,2.44,2.44.7,4.59.7h45.63M50.22,0H4.59C2.06,0,0,2.05,0,4.59v45.73c0,2.53,2.06,4.59,4.59,4.59h45.63c2.53,0,4.59-2.05,4.59-4.59V4.59c0-2.53-2.06-4.59-4.59-4.59h0Z"/>
  </g>
  <g>
    <rect class="cls-1" x="8.43" y="37.56" width="4.22" height="4.22" transform="translate(-24.96 19.07) rotate(-45)"/>
    <path class="cls-3" d="M46.38,22.8v18.98h-4.22v-18.98c0-3.49-2.83-6.33-6.32-6.33s-6.33,2.84-6.33,6.33v18.98h-4.21v-18.98c0-3.49-2.84-6.33-6.33-6.33s-6.33,2.84-6.33,6.33v10.54h-4.21v-10.54c0-.72.07-1.43.21-2.11.31-1.56.97-2.98,1.89-4.21.6-.79,1.31-1.5,2.11-2.1,1.76-1.32,3.95-2.11,6.33-2.11s4.56.79,6.33,2.11c.79.59,1.5,1.31,2.1,2.1.6-.79,1.31-1.5,2.11-2.1,1.76-1.32,3.95-2.11,6.33-2.11s4.56.79,6.32,2.11c.8.59,1.52,1.31,2.11,2.1.92,1.23,1.58,2.66,1.9,4.21.13.69.21,1.39.21,2.11Z"/>
  </g>
</svg>